. 
 
http://www.torrenting.com          :     Once & For all ;)


               www . Torrenting . Com 

(((((((((((((= Enjoy No RAR releases =))))))))))))))))))))


...................................NFO:....................................

.








































          
          
              
              
                    
                    
                    
                    

Thir13en.Ghosts.2001.BRRiP.XviD.AC3-SiC

Poster:
[IMG]http://img153.imageshack.us/img153/9777/13ghosts.jpg[/IMG]

IMDB Link: 
http://www.imdb.com/title/tt0245674/

Description:
When Cyrus Kriticos, a very rich collector of unique things dies, he leaves it all to his nephew and his family. All including his house, his fortune, and his malicious collection of ghosts! 

MediaInfo:
General
Complete name                    : Thir13en.Ghosts.2001.BRRiP.XviD.AC3-SiC.avi
Format                           : AVI
Format/Info                      : Audio Video Interleave
File size                        : 1.37 GiB
Duration                         : 1h 30mn
Overall bit rate                 : 2 163 Kbps

Video
ID                               : 0
Format                           : MPEG-4 Visual
Format profile                   : Advanced Simple@L5
Format settings, BVOP            : 2
Format settings, QPel            : No
Format settings, GMC             : No warppoints
Format settings, Matrix          : Default (H.263)
Muxing mode                      : Packed bitstream
Codec ID                         : XVID
Codec ID/Hint                    : XviD
Duration                         : 1h 30mn
Bit rate                         : 1 771 Kbps
Width                            : 720 pixels
Height                           : 384 pixels
Display aspect ratio             : 1.875
Frame rate                       : 23.976 fps
Color space                      : YUV
Chroma subsampling               : 4:2:0
Bit depth                        : 8 bits
Scan type                        : Progressive
Compression mode                 : Lossy
Bits/(Pixel*Frame)               : 0.267
Stream size                      : 1.12 GiB (82%)
Writing library                  : XviD 1.1.2 (UTC 2006-11-01)

Audio
ID                               : 1
Format                           : AC-3
Format/Info                      : Audio Coding 3
Mode extension                   : CM (complete main)
Codec ID                         : 2000
Duration                         : 1h 30mn
Bit rate mode                    : Constant
Bit rate                         : 384 Kbps
Channel(s)                       : 6 channels
Channel positions                : Front: L C R, Side: L R, LFE
Sampling rate                    : 48.0 KHz
Bit depth                        : 16 bits
Compression mode                 : Lossy
Stream size                      : 249 MiB (18%)
Alignment                        : Aligned on interleaves
Interleave, duration             : 64 ms (1.53 video frames)
Interleave, preload duration     : 192 ms
Title                            : 13g


Screenshots:
[IMG]http://img38.imageshack.us/img38/2451/scrncp00006.png[/IMG]
[IMG]http://img256.imageshack.us/img256/6869/scrncp00008.png[/IMG]
[IMG]http://img148.imageshack.us/img148/865/scrncp00010.png[/IMG]
[IMG]http://img52.imageshack.us/img52/9197/scrncp00012.png[/IMG]
[IMG]http://img805.imageshack.us/img805/6504/scrncp00021.png[/IMG]


Note : Thought id bring some slightly older films back in the mix, especially since most encodes of some have been lost in the shuffle over time. Thanks to some help from a fellow SiC encoder this one turned out pretty nice.

Source: Thir13en.Ghosts.2001.1080p.BluRay.x264-c0nFuSed

Enjoy!

Respects to CaptainHomey, Cyanide, CM8, Rx, THC, ELEKTRI4KA, 
Killerhz, PA, YeFsTe, BoxSlots, MrRep and everyone in the struggle...